<svg width="39" height="39" viewBox="0 0 39 39" fill="current" xmlns="http://www.w3.org/2000/svg">
<path d="M6.12056 20.7535C5.81787 20.4546 5.64783 20.0493 5.64783 19.6266C5.64783 19.204 5.81787 18.7987 6.12056 18.4998L15.2542 9.48318C15.4032 9.33094 15.5813 9.20952 15.7783 9.12598C15.9753 9.04245 16.1872 8.99848 16.4016 8.99664C16.616 8.9948 16.8286 9.03513 17.027 9.11527C17.2254 9.19541 17.4057 9.31377 17.5573 9.46342C17.7089 9.61307 17.8288 9.79103 17.9099 9.98692C17.9911 10.1828 18.032 10.3927 18.0301 10.6043C18.0283 10.8159 17.9837 11.0251 17.8991 11.2196C17.8145 11.414 17.6915 11.5899 17.5373 11.7369L11.1597 18.0328L32.5416 18.0328C32.9698 18.0328 33.3805 18.2007 33.6833 18.4996C33.9861 18.7985 34.1562 19.2039 34.1562 19.6266C34.1562 20.0494 33.9861 20.4548 33.6833 20.7537C33.3805 21.0526 32.9698 21.2205 32.5416 21.2205L11.1597 21.2205L17.5373 27.5164C17.8314 27.817 17.9941 28.2196 17.9904 28.6375C17.9868 29.0554 17.817 29.4552 17.5176 29.7507C17.2182 30.0462 16.8133 30.2138 16.3899 30.2175C15.9666 30.2211 15.5588 30.0605 15.2542 29.7701L6.12056 20.7535Z" fill="white"/>
</svg>
