<svg width="178" height="178" viewBox="0 0 178 178" fill="none" xmlns="http://www.w3.org/2000/svg">
<rect width="177.966" height="177.966" rx="88.983" fill="white" fill-opacity="0.1"/>
<path d="M127.557 89.2826C127.56 90.2108 127.322 91.1239 126.866 91.9329C126.411 92.7419 125.755 93.4194 124.96 93.8995L75.7224 124.02C74.8923 124.529 73.9415 124.806 72.9683 124.824C71.9951 124.842 71.0347 124.6 70.1863 124.123C69.346 123.653 68.646 122.968 68.1583 122.138C67.6706 121.308 67.4128 120.363 67.4114 119.4V59.1652C67.4128 58.2025 67.6706 57.2575 68.1583 56.4274C68.646 55.5974 69.346 54.9122 70.1863 54.4424C71.0347 53.9651 71.9951 53.723 72.9683 53.741C73.9415 53.7591 74.8923 54.0366 75.7224 54.5449L124.96 84.6657C125.755 85.1458 126.411 85.8232 126.866 86.6323C127.322 87.4413 127.56 88.3543 127.557 89.2826Z" fill="white"/>
</svg>
